{
  "accessors": [
    {
      "bufferView": 2,
      "componentType": 5126,
      "count": 2256,
      "max": [
        1.7070239782333374,
        23.77467918395996,
        24.410709381103516
      ],
      "min": [
        -12.040849685668945,
        6.516273021697998,
        11.097649574279785
      ],
      "type": "VEC3"
    },
    {
      "bufferView": 2,
      "byteOffset": 27072,
      "componentType": 5126,
      "count": 2256,
      "max": [
        1.0,
        0.999991774559021,
        0.9999998807907104
      ],
      "min": [
        -1.0,
        -0.9999996423721313,
        -0.9999991059303284
      ],
      "type": "VEC3"
    },
    {
      "bufferView": 3,
      "componentType": 5126,
      "count": 2256,
      "max": [
        0.9995537400245667,
        0.99997878074646,
        0.9981333613395691,
        1.0
      ],
      "min": [
        -0.999997615814209,
        -0.9999967217445374,
        -0.9999883770942688,
        1.0
      ],
      "type": "VEC4"
    },
    {
      "bufferView": 1,
      "componentType": 5126,
      "count": 2256,
      "max": [
        0.9926115870475769,
        0.9890437722206116
      ],
      "min": [
        0.0012512130197137594,
        0.0012512210523709655
      ],
      "type": "VEC2"
    },
    {
      "bufferView": 0,
      "componentType": 5125,
      "count": 5346,
      "type": "SCALAR"
    }
  ],
  "asset": {
    "extras": {
      "author": "japan3d (https://sketchfab.com/japan3d)",
      "license": "CC-BY-4.0 (http://creativecommons.org/licenses/by/4.0/)",
      "source": "https://sketchfab.com/3d-models/re-wheelchair-horror-game-hospital-97bd7574406d4df38d54ec4ac1f18c40",
      "title": "RE: wheelchair (horror game hospital)"
    },
    "generator": "Sketchfab-12.67.0",
    "version": "2.0"
  },
  "bufferViews": [
    {
      "buffer": 0,
      "byteLength": 21384,
      "name": "floatBufferViews",
      "target": 34963
    },
    {
      "buffer": 0,
      "byteLength": 18048,
      "byteOffset": 21384,
      "byteStride": 8,
      "name": "floatBufferViews",
      "target": 34962
    },
    {
      "buffer": 0,
      "byteLength": 54144,
      "byteOffset": 39432,
      "byteStride": 12,
      "name": "floatBufferViews",
      "target": 34962
    },
    {
      "buffer": 0,
      "byteLength": 36096,
      "byteOffset": 93576,
      "byteStride": 16,
      "name": "floatBufferViews",
      "target": 34962
    }
  ],
  "buffers": [
    {
      "byteLength": 129672,
      "uri": "scene.bin"
    }
  ],
  "images": [
    {
      "uri": "textures/SimplygonMaterial_LOD1_baseColor.png"
    },
    {
      "uri": "textures/SimplygonMaterial_LOD1_normal.png"
    }
  ],
  "materials": [
    {
      "doubleSided": true,
      "name": "SimplygonMaterial_LOD1",
      "normalTexture": {
        "index": 1
      },
      "pbrMetallicRoughness": {
        "baseColorTexture": {
          "index": 0
        },
        "metallicFactor": 0.35,
        "roughnessFactor": 0.91
      }
    }
  ],
  "meshes": [
    {
      "name": "Object_0",
      "primitives": [
        {
          "attributes": {
            "NORMAL": 1,
            "POSITION": 0,
            "TANGENT": 2,
            "TEXCOORD_0": 3
          },
          "indices": 4,
          "material": 0,
          "mode": 4
        }
      ]
    }
  ],
  "nodes": [
    {
      "children": [
        1
      ],
      "matrix": [
        1.0,
        0.0,
        0.0,
        0.0,
        0.0,
        2.220446049250313e-16,
        -1.0,
        0.0,
        0.0,
        1.0,
        2.220446049250313e-16,
        0.0,
        0.0,
        0.0,
        0.0,
        1.0
      ],
      "name": "Sketchfab_model"
    },
    {
      "children": [
        2
      ],
      "name": "UnsavedScene_1.obj.cleaner"
    },
    {
      "mesh": 0,
      "name": "Object_2"
    }
  ],
  "samplers": [
    {
      "magFilter": 9729,
      "minFilter": 9987,
      "wrapS": 10497,
      "wrapT": 10497
    }
  ],
  "scene": 0,
  "scenes": [
    {
      "name": "Sketchfab_Scene",
      "nodes": [
        0
      ]
    }
  ],
  "textures": [
    {
      "sampler": 0,
      "source": 0
    },
    {
      "sampler": 0,
      "source": 1
    }
  ]
}
